<svg aria-hidden="true" style="position: absolute; width: 0; height: 0; overflow: hidden;" version="1.1" xmlns="http://www.w3.org/2000/svg" xmlns:xlink="http://www.w3.org/1999/xlink">
<defs>
<symbol id="icon-truck" viewBox="0 0 24 24">
<path fill="#f86d10" style="fill: var(--color1, #f86d10)" d="M3.754 3.875l-0.93 0.93 6.218 6.572v2.747h3.656v-2.386l-8.945-7.863zM2.563 5.756v3.764l0.188 0.127c0.495 0.328 0.691 0.661 0.747 0.928 0.055 0.272-0.020 0.506-0.18 0.698-0.322 0.389-0.933 0.577-1.534-0.028l-0.596 0.6c0.899 0.895 2.162 0.708 2.778-0.028 0.308-0.37 0.467-0.886 0.359-1.411-0.096-0.469-0.409-0.923-0.917-1.313v-2.447l-0.844-0.891zM14.658 8.217v6.75h-8.672c1.059 0.272 1.903 1.102 2.189 2.156h7.622c0.352-1.294 1.537-2.25 2.939-2.25s2.588 0.956 2.939 2.25h1.139v-3.966l-2.822-4.941h-5.334zM16.345 8.873h2.911l2.564 4.312h-5.475v-4.312zM1.275 14.967l0.539 2.156h0.48c0.287-1.055 1.129-1.884 2.191-2.156h-3.21zM5.236 15.717c-1.222 0-2.204 0.98-2.204 2.203s0.982 2.203 2.204 2.203c1.223 0 2.203-0.98 2.203-2.203s-0.98-2.203-2.203-2.203zM18.736 15.717c-1.224 0-2.203 0.98-2.203 2.203s0.98 2.203 2.203 2.203c1.223 0 2.203-0.98 2.203-2.203s-0.98-2.203-2.203-2.203z"></path>
</symbol>
<symbol id="icon-regular" viewBox="0 0 24 24">
<path fill="#f86d10" style="fill: var(--color1, #f86d10)" d="M5.625 2.25h12.75c0.895 0 1.754 0.356 2.386 0.988s0.989 1.491 0.989 2.387v5.315c-0.497-0.101-1.010-0.087-1.5 0.043v-2.732h-16.5v10.125c0 0.497 0.198 0.974 0.549 1.326s0.829 0.549 1.326 0.549h5.772l-0.389 1.5h-5.384c-0.895 0-1.754-0.356-2.386-0.989s-0.989-1.491-0.989-2.386v-12.75c0-0.895 0.356-1.754 0.989-2.387s1.491-0.989 2.387-0.989zM3.75 5.625v1.125h16.5v-1.125c0-0.497-0.198-0.974-0.549-1.326s-0.828-0.549-1.326-0.549h-12.75c-0.497 0-0.974 0.198-1.326 0.549s-0.549 0.829-0.549 1.326zM16.151 22.1l6.458-6.407c0.4-0.396 0.629-0.933 0.639-1.496s-0.2-1.107-0.585-1.517c-0.199-0.211-0.438-0.381-0.703-0.498s-0.552-0.179-0.842-0.183c-0.29-0.004-0.578 0.051-0.846 0.16s-0.512 0.272-0.717 0.478l-6.425 6.48c-0.248 0.25-0.426 0.563-0.514 0.904l-0.593 2.289c-0.033 0.126-0.032 0.259 0.003 0.385s0.101 0.241 0.193 0.333c0.092 0.092 0.207 0.159 0.333 0.194s0.258 0.036 0.385 0.003l2.265-0.584c0.36-0.093 0.688-0.279 0.952-0.541zM9 12.375c0 0.298-0.119 0.585-0.33 0.795s-0.497 0.33-0.795 0.33c-0.298 0-0.585-0.119-0.795-0.33s-0.33-0.497-0.33-0.795c0-0.298 0.119-0.585 0.33-0.795s0.497-0.33 0.795-0.33c0.298 0 0.585 0.118 0.795 0.33s0.33 0.497 0.33 0.795zM7.875 17.25c0.298 0 0.585-0.119 0.795-0.33s0.33-0.497 0.33-0.795c0-0.298-0.119-0.585-0.33-0.795s-0.497-0.33-0.795-0.33c-0.298 0-0.585 0.119-0.795 0.33s-0.33 0.497-0.33 0.795c0 0.298 0.119 0.585 0.33 0.795s0.497 0.33 0.795 0.33zM12 17.25c0.298 0 0.585-0.119 0.795-0.33s0.33-0.497 0.33-0.795c0-0.298-0.119-0.585-0.33-0.795s-0.497-0.33-0.795-0.33c-0.298 0-0.585 0.119-0.795 0.33s-0.33 0.497-0.33 0.795c0 0.298 0.118 0.585 0.33 0.795s0.497 0.33 0.795 0.33zM12 13.5c0.298 0 0.585-0.119 0.795-0.33s0.33-0.497 0.33-0.795c0-0.298-0.119-0.585-0.33-0.795s-0.497-0.33-0.795-0.33c-0.298 0-0.585 0.118-0.795 0.33s-0.33 0.497-0.33 0.795c0 0.298 0.118 0.585 0.33 0.795s0.497 0.33 0.795 0.33zM16.125 13.5c0.298 0 0.585-0.119 0.795-0.33s0.33-0.497 0.33-0.795c0-0.298-0.119-0.585-0.33-0.795s-0.497-0.33-0.795-0.33c-0.298 0-0.585 0.118-0.795 0.33s-0.33 0.497-0.33 0.795c0 0.298 0.119 0.585 0.33 0.795s0.497 0.33 0.795 0.33z"></path>
</symbol>
<symbol id="icon-time" viewBox="0 0 24 24">
<path fill="#f86d10" style="fill: var(--color1, #f86d10)" d="M17.010 11.066c-2.62 0-4.75-2.13-4.75-4.75s2.13-4.75 4.75-4.75c2.62 0 4.75 2.13 4.75 4.75s-2.13 4.75-4.75 4.75zM17.010 3.066c-1.79 0-3.25 1.46-3.25 3.25s1.46 3.25 3.25 3.25c1.79 0 3.25-1.46 3.25-3.25s-1.46-3.25-3.25-3.25zM20.51 23.066c-0.53 0-0.85 0-1.18-0.14-0.212-0.088-0.405-0.217-0.566-0.38s-0.289-0.357-0.374-0.57c-0.13-0.31-0.13-0.61-0.13-1.16 0-0.26 0-0.53-0.020-0.6-0.027-0.057-0.073-0.103-0.13-0.13-0.080-0.020-0.34-0.020-0.6-0.020h-11c-0.26 0-0.52 0-0.59 0.020-0.070 0.030-0.11 0.070-0.14 0.13-0.020 0.070-0.020 0.34-0.020 0.6 0 0.55 0 0.85-0.14 1.17-0.17 0.43-0.51 0.76-0.95 0.94-0.31 0.14-0.63 0.14-1.168 0.14h-0.003c-0.54 0-0.849 0-1.179-0.14-0.212-0.088-0.405-0.217-0.566-0.38s-0.289-0.357-0.374-0.57c-0.13-0.31-0.13-0.61-0.13-1.16v-3.080c0-1.23 0-1.91 0.2-2.59 0.205-0.672 0.59-1.25 1.22-2.195l0.31-0.465-1.43-1.070c-0.159-0.119-0.264-0.297-0.292-0.494s0.023-0.397 0.142-0.556c0.119-0.159 0.297-0.264 0.494-0.293s0.397 0.023 0.556 0.143l1.23 0.92 0.59-1.42 0.040-0.094c0.755-1.8 1.176-2.806 2.11-3.426 0.95-0.63 2.060-0.63 4.080-0.63 0.41 0 0.75 0.34 0.75 0.75s-0.34 0.75-0.75 0.75c-1.79 0-2.679 0-3.249 0.38-0.54 0.37-0.86 1.090-1.6 2.85l-0.63 1.5 0.68 0.17c0.22 0.060 0.32 0.080 0.42 0.1h11.82c0.031 0 0.097-0.017 0.212-0.048l0.118-0.032 1.55-0.39c0.31-0.080 0.63 0.050 0.8 0.31l0.66 0.98 0.050 0.075c0.63 0.946 1.016 1.523 1.22 2.195 0.2 0.68 0.2 1.36 0.2 2.59v3.080c0 0.55 0 0.85-0.14 1.17-0.17 0.43-0.51 0.76-0.95 0.94-0.31 0.14-0.63 0.14-1.169 0.14l0.018-0.010zM6.519 18.566h10.993c0.529 0 0.848 0 1.178 0.14 0.42 0.17 0.76 0.51 0.94 0.95 0.13 0.31 0.13 0.61 0.13 1.16 0 0.26 0 0.53 0.020 0.6 0.030 0.060 0.070 0.1 0.13 0.13 0.16 0.050 1.060 0.040 1.19 0 0.070-0.030 0.11-0.070 0.14-0.13 0.020-0.070 0.020-0.34 0.020-0.6v-3.080c0-1.12 0-1.69-0.14-2.15-0.14-0.45-0.45-0.92-1.080-1.87l-0.36-0.54-1.010 0.25c-0.28 0.070-0.41 0.1-0.54 0.12-0.2 0.020-0.34 0.020-0.61 0.020h-11.020c-0.28 0-0.41 0-0.55-0.010-0.178-0.029-0.355-0.065-0.53-0.11l-1.080-0.27-0.36 0.54c-0.63 0.95-0.94 1.42-1.080 1.87-0.14 0.46-0.14 1.020-0.14 2.15v3.080c0 0.26 0 0.53 0.020 0.6 0.030 0.060 0.070 0.1 0.13 0.13 0.16 0.050 1.060 0.040 1.19 0 0.070-0.030 0.11-0.070 0.14-0.13 0.020-0.070 0.020-0.34 0.020-0.6 0-0.55 0-0.85 0.14-1.17 0.17-0.43 0.51-0.76 0.95-0.94 0.31-0.14 0.63-0.14 1.169-0.14zM18.009 17.326c-0.55 0-1-0.45-1-1s0.45-1 1-1c0.55 0 1 0.44 1 1s-0.45 1.010-1 1.010v-0.010zM5.009 16.326c0 0.55 0.45 1 1 1v0.010c0.55 0 1-0.45 1-1.010s-0.45-1-1-1c-0.55 0-1 0.45-1 1zM18.269 7.526c0.186 0.055 0.386 0.036 0.558-0.053s0.303-0.242 0.365-0.426c0.062-0.184 0.051-0.385-0.032-0.56s-0.23-0.312-0.412-0.381l-0.99-0.33v-1.46c0-0.41-0.34-0.75-0.75-0.75s-0.75 0.34-0.75 0.75v2c0 0.32 0.2 0.61 0.51 0.71l1.5 0.5z"></path>
</symbol>
<symbol id="icon-wallet" viewBox="0 0 24 24">
<path fill="#f86d10" style="fill: var(--color1, #f86d10)" d="M14.222 3.141c0.031-0.039 0.069-0.071 0.112-0.095s0.091-0.039 0.14-0.045c0.049-0.006 0.099-0.001 0.147 0.012s0.092 0.037 0.13 0.068l0.81 0.649-2.962 3.769h1.908l2.226-2.832 1.878 1.505c0.039 0.031 0.072 0.071 0.096 0.115s0.039 0.093 0.043 0.143c0.005 0.050-0.001 0.101-0.016 0.149s-0.040 0.092-0.073 0.131l-0.681 0.79h1.96c0.258-0.39 0.361-0.863 0.289-1.325s-0.315-0.881-0.68-1.173l-3.86-3.091c-0.193-0.154-0.414-0.269-0.652-0.338s-0.486-0.090-0.731-0.062c-0.245 0.028-0.483 0.104-0.699 0.224s-0.406 0.281-0.56 0.475l-4.19 5.29h1.913l3.452-4.359zM15.75 14.25c-0.199 0-0.39 0.079-0.53 0.22s-0.22 0.331-0.22 0.53 0.079 0.39 0.22 0.53c0.141 0.141 0.331 0.22 0.53 0.22h2.25c0.199 0 0.39-0.079 0.53-0.22s0.22-0.331 0.22-0.53-0.079-0.39-0.22-0.53c-0.141-0.141-0.331-0.22-0.53-0.22h-2.25zM4.5 5.25c-0.597 0-1.169 0.237-1.591 0.659s-0.659 0.994-0.659 1.591v10.875c0 0.895 0.356 1.754 0.988 2.386s1.491 0.989 2.387 0.989h12.75c0.895 0 1.754-0.356 2.386-0.989s0.989-1.491 0.989-2.386v-6.75c0-0.895-0.356-1.754-0.989-2.386s-1.491-0.989-2.386-0.989h-13.875c-0.199 0-0.39-0.079-0.53-0.22s-0.22-0.331-0.22-0.53c0-0.199 0.079-0.39 0.22-0.53s0.331-0.22 0.53-0.22h3.435l1.197-1.5h-4.632zM3.75 18.375v-8.752c0.235 0.082 0.488 0.127 0.75 0.127h13.875c0.497 0 0.974 0.198 1.326 0.549s0.549 0.828 0.549 1.326v6.75c0 0.497-0.198 0.974-0.549 1.326s-0.828 0.549-1.326 0.549h-12.75c-0.497 0-0.974-0.198-1.326-0.549s-0.549-0.828-0.549-1.326z"></path>
</symbol>
<symbol id="icon-services" viewBox="0 0 24 24">
<path fill="#f86d10" style="fill: var(--color1, #f86d10)" d="M13.887 13.816c-0.687-0.586-1.449-1.035-2.285-1.348s-1.703-0.469-2.602-0.469c-0.687 0-1.352 0.090-1.992 0.27s-1.238 0.43-1.793 0.75c-0.555 0.32-1.059 0.711-1.512 1.172s-0.844 0.969-1.172 1.523c-0.328 0.555-0.582 1.152-0.762 1.793s-0.27 1.305-0.27 1.992h-1.5c0-0.938 0.137-1.84 0.41-2.707s0.668-1.668 1.184-2.402c0.516-0.734 1.125-1.387 1.828-1.957s1.5-1.020 2.391-1.348c-0.883-0.578-1.57-1.305-2.063-2.18s-0.742-1.844-0.75-2.906c0-0.828 0.156-1.605 0.469-2.332s0.738-1.363 1.277-1.91c0.539-0.547 1.176-0.977 1.91-1.289s1.516-0.469 2.344-0.469c0.828 0 1.605 0.156 2.332 0.469s1.363 0.738 1.91 1.277 0.977 1.176 1.289 1.91c0.312 0.734 0.469 1.516 0.469 2.344 0 0.516-0.063 1.020-0.188 1.512s-0.312 0.957-0.563 1.395c-0.25 0.438-0.543 0.84-0.879 1.207s-0.731 0.691-1.184 0.973c0.508 0.195 0.992 0.434 1.453 0.715s0.895 0.598 1.301 0.949l-1.055 1.066zM4.5 6c0 0.625 0.117 1.207 0.352 1.746s0.555 1.016 0.961 1.43c0.406 0.414 0.883 0.738 1.43 0.973s1.133 0.352 1.758 0.352c0.617 0 1.199-0.117 1.746-0.352s1.023-0.555 1.43-0.961c0.406-0.406 0.731-0.883 0.973-1.43s0.359-1.133 0.352-1.758c0-0.617-0.117-1.199-0.352-1.746s-0.555-1.023-0.961-1.43-0.887-0.73-1.441-0.973c-0.555-0.242-1.137-0.359-1.746-0.352-0.625 0-1.207 0.117-1.746 0.352s-1.016 0.555-1.43 0.961c-0.414 0.406-0.738 0.887-0.973 1.441s-0.352 1.137-0.352 1.746zM20.25 9c0.516 0 1 0.098 1.453 0.293s0.848 0.465 1.184 0.809c0.336 0.344 0.606 0.742 0.809 1.195s0.305 0.937 0.305 1.453-0.098 1-0.293 1.453c-0.195 0.453-0.465 0.852-0.809 1.195s-0.742 0.613-1.195 0.809c-0.453 0.195-0.938 0.293-1.453 0.293-0.18 0-0.355-0.012-0.527-0.035l-6.879 6.879c-0.211 0.211-0.453 0.371-0.727 0.48s-0.563 0.168-0.867 0.176c-0.312 0-0.606-0.059-0.879-0.176s-0.512-0.277-0.715-0.48c-0.203-0.203-0.363-0.441-0.48-0.715s-0.176-0.566-0.176-0.879c0-0.297 0.055-0.582 0.164-0.855s0.273-0.519 0.492-0.738l6.879-6.879c-0.024-0.172-0.035-0.348-0.035-0.527 0-0.516 0.098-1 0.293-1.453s0.461-0.848 0.797-1.184c0.336-0.336 0.734-0.605 1.195-0.809s0.949-0.305 1.465-0.305zM20.25 15c0.312 0 0.606-0.059 0.879-0.176s0.512-0.277 0.715-0.48c0.203-0.203 0.363-0.441 0.48-0.715s0.176-0.566 0.176-0.879c0-0.32-0.074-0.641-0.223-0.961l-1.711 1.711h-1.066v-1.066l1.711-1.711c-0.32-0.149-0.641-0.223-0.961-0.223-0.312 0-0.606 0.059-0.879 0.176s-0.512 0.277-0.715 0.48c-0.203 0.203-0.363 0.441-0.48 0.715s-0.176 0.566-0.176 0.879c0 0.32 0.074 0.641 0.223 0.961l-7.5 7.512c-0.149 0.148-0.223 0.324-0.223 0.527s0.074 0.379 0.223 0.527c0.148 0.148 0.324 0.223 0.527 0.223s0.379-0.074 0.527-0.223l7.512-7.5c0.32 0.149 0.641 0.223 0.961 0.223z"></path>
</symbol>
<symbol id="icon-tiktok" viewBox="0 0 21 24">
<path fill="#ff004f" style="fill: var(--color1, #ff004f)" d="M15.563 8.642c1.532 1.104 3.409 1.754 5.436 1.754v-3.934c-0.384 0-0.766-0.040-1.142-0.12v3.096c-2.027 0-3.904-0.65-5.436-1.754v8.027c0 4.016-3.228 7.271-7.211 7.271-1.486 0-2.867-0.453-4.014-1.23 1.309 1.35 3.135 2.187 5.155 2.187 3.982 0 7.211-3.255 7.211-7.271v-8.027h-0zM16.971 4.673c-0.783-0.863-1.297-1.977-1.408-3.21v-0.506h-1.082c0.272 1.566 1.201 2.905 2.49 3.716zM5.715 18.671c-0.438-0.578-0.674-1.286-0.673-2.013 0-1.837 1.477-3.326 3.298-3.326 0.339-0 0.677 0.052 1.001 0.156v-4.022c-0.378-0.052-0.76-0.074-1.141-0.066v3.13c-0.324-0.104-0.661-0.156-1.001-0.156-1.822 0-3.298 1.489-3.298 3.326 0 1.299 0.738 2.423 1.814 2.971z"></path>
<path fill="#000" style="fill: var(--color2, #000)" d="M14.421 7.684c1.533 1.104 3.409 1.754 5.436 1.754v-3.096c-1.131-0.243-2.133-0.839-2.886-1.669-1.289-0.811-2.218-2.149-2.49-3.716h-2.842v15.711c-0.006 1.832-1.481 3.315-3.299 3.315-1.071 0-2.023-0.515-2.626-1.313-1.076-0.548-1.814-1.672-1.814-2.971 0-1.837 1.477-3.326 3.298-3.326 0.349 0 0.685 0.055 1.001 0.156v-3.13c-3.912 0.082-7.059 3.305-7.059 7.269 0 1.979 0.783 3.773 2.055 5.084 1.147 0.777 2.528 1.23 4.014 1.23 3.982 0 7.211-3.255 7.211-7.271l-0-8.027z"></path>
<path fill="#00f2ea" style="fill: var(--color3, #00f2ea)" d="M19.858 6.342v-0.837c-1.020 0.002-2.021-0.287-2.886-0.831 0.766 0.846 1.775 1.429 2.886 1.669zM14.481 0.958c-0.026-0.15-0.046-0.3-0.060-0.452v-0.506h-3.924v15.711c-0.006 1.832-1.48 3.315-3.298 3.315-0.515 0.001-1.024-0.121-1.484-0.355 0.603 0.798 1.554 1.312 2.626 1.312 1.818 0 3.292-1.483 3.298-3.315v-15.711l2.842-0zM8.2 9.4v-0.891c-0.328-0.045-0.658-0.068-0.989-0.068-3.983 0-7.211 3.255-7.211 7.271 0 2.517 1.269 4.736 3.197 6.041-1.272-1.311-2.055-3.105-2.055-5.084 0-3.964 3.146-7.187 7.059-7.269z"></path>
</symbol>
<symbol id="icon-instagram" viewBox="0 0 24 24">
<path fill="#000" style="fill: var(--color2, #000)" d="M18.375 0h-12.75c-3.107 0-5.625 2.518-5.625 5.625v12.75c0 3.107 2.518 5.625 5.625 5.625h12.75c3.107 0 5.625-2.518 5.625-5.625v-12.75c0-3.107-2.518-5.625-5.625-5.625z"></path>
<path fill="#000" style="fill: var(--color2, #000)" d="M18.375 0h-12.75c-3.107 0-5.625 2.518-5.625 5.625v12.75c0 3.107 2.518 5.625 5.625 5.625h12.75c3.107 0 5.625-2.518 5.625-5.625v-12.75c0-3.107-2.518-5.625-5.625-5.625z"></path>
<path fill="#fff" style="fill: var(--color4, #fff)" d="M12.001 2.625c-2.546 0-2.866 0.011-3.866 0.057-0.998 0.046-1.679 0.204-2.275 0.436-0.617 0.239-1.14 0.56-1.661 1.081s-0.842 1.044-1.082 1.661c-0.232 0.596-0.391 1.278-0.436 2.275-0.045 1-0.056 1.32-0.056 3.866s0.011 2.865 0.057 3.865c0.046 0.998 0.204 1.679 0.436 2.275 0.24 0.617 0.56 1.14 1.081 1.661s1.044 0.843 1.66 1.082c0.597 0.232 1.278 0.39 2.276 0.436 1 0.045 1.319 0.057 3.865 0.057s2.865-0.011 3.865-0.057c0.998-0.046 1.68-0.204 2.277-0.436 0.616-0.239 1.139-0.561 1.659-1.082s0.842-1.044 1.082-1.66c0.23-0.596 0.389-1.278 0.436-2.275 0.045-1 0.057-1.319 0.057-3.865s-0.012-2.866-0.057-3.866c-0.047-0.998-0.205-1.679-0.436-2.275-0.24-0.617-0.561-1.14-1.082-1.661s-1.043-0.842-1.66-1.081c-0.598-0.232-1.279-0.39-2.277-0.436-1-0.045-1.318-0.057-3.865-0.057h0.003zM11.16 4.314c0.25-0 0.528 0 0.841 0 2.503 0 2.8 0.009 3.788 0.054 0.914 0.042 1.41 0.195 1.741 0.323 0.438 0.17 0.75 0.373 1.077 0.701s0.531 0.641 0.702 1.078c0.128 0.33 0.281 0.826 0.323 1.74 0.045 0.988 0.055 1.285 0.055 3.787s-0.010 2.799-0.055 3.787c-0.042 0.914-0.195 1.41-0.323 1.74-0.17 0.438-0.373 0.749-0.702 1.077s-0.64 0.531-1.077 0.701c-0.33 0.129-0.827 0.281-1.741 0.323-0.988 0.045-1.285 0.055-3.788 0.055s-2.8-0.010-3.788-0.055c-0.914-0.042-1.41-0.195-1.741-0.323-0.437-0.17-0.75-0.373-1.078-0.701s-0.531-0.64-0.702-1.078c-0.128-0.33-0.281-0.826-0.323-1.74-0.045-0.988-0.054-1.285-0.054-3.789s0.009-2.799 0.054-3.787c0.042-0.914 0.195-1.41 0.323-1.741 0.17-0.438 0.373-0.75 0.702-1.078s0.641-0.531 1.078-0.702c0.33-0.129 0.827-0.281 1.741-0.323 0.865-0.039 1.2-0.051 2.947-0.053v0.002zM17.005 5.871c-0.621 0-1.125 0.503-1.125 1.125s0.504 1.125 1.125 1.125 1.125-0.504 1.125-1.125c0-0.621-0.504-1.125-1.125-1.125v0zM12.001 7.186c-2.659 0-4.814 2.156-4.814 4.815s2.156 4.813 4.814 4.813c2.659 0 4.814-2.155 4.814-4.813s-2.155-4.815-4.814-4.815h0zM12.001 8.875c1.726 0 3.125 1.399 3.125 3.125s-1.399 3.125-3.125 3.125c-1.726 0-3.125-1.399-3.125-3.125s1.399-3.125 3.125-3.125z"></path>
</symbol>
<symbol id="icon-telegram" viewBox="0 0 24 24">
<path fill="#000" style="fill: var(--color2, #000)" d="M12 0c-3.182 0-6.236 1.265-8.484 3.515-2.25 2.251-3.515 5.303-3.516 8.485 0 3.181 1.266 6.236 3.516 8.485 2.248 2.25 5.303 3.515 8.484 3.515s6.236-1.265 8.484-3.515c2.25-2.25 3.516-5.304 3.516-8.485s-1.266-6.236-3.516-8.485c-2.248-2.25-5.302-3.515-8.484-3.515z"></path>
<path fill="#fff" style="fill: var(--color4, #fff)" d="M5.432 11.873c3.499-1.524 5.831-2.529 6.998-3.014 3.334-1.386 4.026-1.627 4.477-1.635 0.099-0.002 0.321 0.023 0.465 0.14 0.12 0.098 0.154 0.232 0.171 0.325 0.015 0.093 0.036 0.306 0.019 0.472-0.18 1.897-0.962 6.502-1.359 8.627-0.167 0.899-0.499 1.201-0.819 1.23-0.697 0.064-1.226-0.46-1.901-0.903-1.056-0.692-1.652-1.123-2.678-1.799-1.185-0.781-0.416-1.21 0.259-1.911 0.176-0.184 3.248-2.976 3.306-3.23 0.008-0.032 0.015-0.15-0.056-0.212-0.069-0.062-0.172-0.041-0.247-0.024-0.107 0.024-1.793 1.139-5.063 3.346-0.478 0.329-0.911 0.489-1.301 0.481-0.428-0.009-1.253-0.242-1.866-0.441-0.75-0.244-1.348-0.374-1.296-0.789 0.026-0.216 0.324-0.437 0.893-0.663z"></path>
</symbol>
</defs>
</svg>
